<?xml version="1.0" standalone="no"?>
<!DOCTYPE svg PUBLIC "-//W3C//DTD SVG 20010904//EN"
 "http://www.w3.org/TR/2001/REC-SVG-20010904/DTD/svg10.dtd">
<svg version="1.0" xmlns="http://www.w3.org/2000/svg"
 width="1564.000000pt" height="1405.000000pt" viewBox="0 0 1564.000000 1405.000000"
 preserveAspectRatio="xMidYMid meet">
<metadata>
Created by potrace 1.14, written by Peter Selinger 2001-2017
</metadata>
<g transform="translate(0.000000,1405.000000) scale(0.100000,-0.100000)"
fill="#000000" stroke="none">
<path d="M8431 14009 c-355 -19 -727 -93 -1028 -204 -54 -20 -167 -70 -250
-110 -446 -215 -799 -502 -1172 -954 -396 -480 -708 -773 -1107 -1039 -219
-146 -420 -252 -661 -349 -62 -25 -113 -49 -113 -53 0 -18 129 -122 192 -155
101 -53 201 -76 341 -77 l118 0 -81 -84 c-234 -244 -400 -628 -539 -1247 -54
-236 -84 -335 -183 -594 l-62 -163 -1934 -2 -1933 -3 253 -198 c139 -109 537
-422 885 -695 l632 -497 1 -2125 0 -2125 464 -367 465 -368 480 0 479 0 49
-57 c161 -193 248 -289 423 -467 276 -281 486 -466 781 -688 670 -506 1452
-911 2323 -1203 271 -91 522 -165 556 -165 34 0 281 73 544 161 1016 339 1895
823 2650 1457 259 218 610 571 839 845 l98 117 687 0 687 0 190 151 c105 82
240 189 300 237 299 235 396 316 467 389 l78 78 2 2269 3 2269 175 138 c96 76
378 297 626 491 l451 353 -1961 3 -1961 3 -57 77 c-338 461 -634 1074 -782
1620 l-25 92 33 0 c51 0 133 -47 176 -101 69 -87 124 -234 149 -399 22 -138
13 -133 93 -54 348 341 586 765 642 1146 29 192 16 487 -30 684 -106 461 -378
788 -761 918 -59 20 -64 25 -101 86 -44 74 -110 129 -186 158 -47 17 -54 24
-93 96 -23 43 -61 102 -84 133 -118 152 -326 295 -576 394 -181 72 -733 157
-1168 179 -209 11 -272 11 -484 -1z m659 -189 c339 -20 582 -63 830 -146 264
-88 447 -184 568 -298 51 -48 128 -144 121 -150 -2 -1 -47 -17 -99 -35 -303
-104 -554 -297 -718 -555 l-56 -88 -130 5 c-212 7 -379 66 -526 184 -149 119
-262 184 -392 227 -75 24 -207 50 -215 43 -2 -3 31 -24 74 -48 133 -72 229
-138 272 -184 66 -72 54 -82 -40 -35 -292 147 -704 204 -1040 145 -92 -16
-292 -70 -318 -85 -10 -6 74 -10 230 -10 257 0 407 -11 518 -36 67 -16 181
-62 181 -73 0 -3 -12 -42 -27 -86 -24 -70 -27 -95 -27 -210 0 -118 2 -136 26
-197 15 -38 24 -68 20 -68 -4 0 -57 24 -117 54 -61 30 -111 53 -113 52 -7 -7
102 -138 156 -188 125 -115 273 -163 477 -155 136 5 233 24 379 72 56 18 102
31 104 30 2 -2 -4 -18 -14 -36 -21 -42 -105 -131 -164 -174 -97 -71 -266 -142
-430 -180 -151 -35 -142 -30 -82 -48 78 -24 186 -31 270 -18 165 26 315 109
483 269 l99 94 -36 -83 c-45 -106 -76 -162 -126 -221 -22 -27 -34 -48 -28 -48
7 0 42 15 78 33 47 22 92 57 149 114 88 86 92 78 12 -23 -76 -96 -201 -196
-333 -266 -80 -42 -79 -45 8 -22 252 65 446 258 566 563 24 60 45 109 47 108
6 -7 -30 -188 -53 -264 -71 -236 -224 -456 -424 -607 -140 -106 -688 -331
-915 -376 -33 -6 -71 -14 -84 -16 -22 -5 -23 -8 -18 -61 6 -59 23 -85 72 -111
24 -13 79 -17 270 -23 245 -7 294 -13 434 -60 95 -31 227 -92 355 -165 63 -35
117 -64 121 -64 4 0 80 49 171 109 345 230 667 350 947 354 l109 2 28 -110
c114 -446 405 -1125 671 -1567 33 -54 59 -100 59 -103 0 -3 -1674 -5 -3720 -5
-2203 0 -3720 4 -3720 9 0 5 25 73 55 151 67 170 199 559 260 760 89 300 334
791 510 1025 93 123 165 188 232 209 89 28 318 149 423 224 119 84 318 282
390 387 l54 80 -84 -78 c-269 -249 -576 -416 -902 -489 -88 -20 -131 -23 -293
-23 -179 0 -335 16 -335 34 0 4 26 15 58 25 163 51 448 181 628 287 333 196
543 380 849 744 256 303 549 595 807 802 229 183 567 383 815 482 401 159
1041 244 1593 211z m1617 -720 c44 -22 87 -48 97 -59 18 -19 18 -20 -5 -24
-297 -56 -469 -154 -538 -309 -64 -141 -83 -216 -91 -358 -9 -159 -35 -248
-102 -343 -33 -46 -13 -42 37 7 72 72 110 164 140 338 51 297 100 393 239 474
98 58 186 77 361 78 169 0 231 -12 350 -69 141 -68 242 -176 354 -380 97 -177
158 -370 187 -589 23 -176 14 -443 -20 -586 -56 -239 -143 -478 -221 -612 -43
-73 -106 -158 -117 -158 -4 0 -8 17 -8 38 0 81 -21 169 -60 249 -32 65 -55 95
-115 151 -113 106 -244 165 -483 219 -102 23 -140 26 -292 27 -284 0 -577 -59
-991 -199 -177 -59 -602 -225 -596 -232 2 -1 91 21 198 51 443 123 777 196
1089 237 153 20 517 18 620 -4 89 -19 207 -69 250 -106 l25 -21 -45 8 c-25 4
-151 7 -280 7 -185 0 -254 -4 -325 -18 -336 -67 -595 -197 -822 -411 l-83 -78
-134 61 c-162 73 -271 114 -374 140 -120 30 -161 33 -294 21 -139 -12 -258 -1
-317 27 -68 33 -54 46 81 77 323 73 648 182 791 267 85 51 283 232 354 324
164 213 229 482 214 890 -2 83 1 111 19 165 90 268 289 503 535 632 81 42 246
107 276 108 9 0 52 -18 96 -40z m-2041 -451 c29 -16 56 -34 58 -38 3 -4 -6
-23 -19 -41 -45 -62 -58 -112 -53 -205 5 -67 11 -94 32 -129 66 -112 220 -152
411 -107 90 22 86 13 -16 -39 -90 -46 -162 -63 -248 -58 -65 4 -88 10 -158 47
-200 104 -265 255 -185 433 20 44 107 168 118 168 4 0 31 -14 60 -31z m523
-174 c53 -27 64 -102 21 -145 -74 -74 -199 5 -160 101 22 53 84 73 139 44z
m-2419 -4075 l0 -220 -240 0 -240 0 0 220 0 220 240 0 240 0 0 -220z m3160 0
l0 -220 -245 0 -245 0 0 213 c0 118 3 217 7 220 3 4 114 7 245 7 l238 0 0
-220z m768 -2 l2 -218 -245 0 -245 0 0 220 0 220 243 -2 242 -3 3 -217z
m-6918 -198 l0 -400 -430 0 -430 0 -2 -2410 -3 -2410 -405 320 -405 319 -5
2093 -5 2092 -340 269 c-187 147 -414 326 -504 398 l-164 129 1346 0 1347 0 0
-400z m1575 372 c301 -83 459 -272 511 -612 19 -132 19 -629 -1 -760 -39 -259
-142 -425 -331 -536 -15 -9 -10 -15 42 -47 159 -96 255 -263 295 -512 6 -41
14 -297 19 -610 7 -511 8 -544 28 -612 12 -40 22 -77 22 -83 0 -6 -96 -10
-275 -10 -315 0 -284 -11 -312 108 -12 54 -17 173 -23 607 -6 434 -10 550 -22
590 -33 111 -83 176 -167 217 -40 19 -66 22 -203 26 l-158 4 -2 -773 -3 -774
-277 -3 -278 -2 0 1905 0 1906 528 -3 c506 -4 530 -5 607 -26z m2989 0 c194
-54 339 -165 420 -320 69 -134 106 -340 106 -593 0 -409 -88 -646 -289 -784
-39 -27 -71 -50 -71 -51 0 -2 28 -18 63 -36 90 -47 193 -154 244 -253 87 -169
103 -275 103 -676 0 -324 -8 -415 -51 -549 -72 -226 -224 -387 -436 -461 -140
-49 -169 -51 -710 -56 l-513 -5 0 1907 0 1906 528 -3 c507 -4 530 -5 606 -26z
m4196 -549 c265 -1077 378 -1537 484 -1968 58 -236 127 -517 153 -622 26 -106
51 -193 55 -193 5 0 8 756 8 1680 l0 1680 607 0 c511 0 605 -2 593 -14 -8 -7
-117 -93 -242 -190 l-228 -178 0 -2286 0 -2287 -409 -323 c-226 -177 -416
-324 -423 -327 -10 -4 -33 73 -91 307 -42 172 -163 660 -268 1083 -235 952
-351 1419 -518 2100 -72 292 -135 539 -140 550 -6 12 -10 -758 -10 -2017 l-1
-2038 -370 0 -370 0 0 2810 0 2810 514 0 514 0 142 -577z m-5735 -1623 l0
-1605 -275 0 -275 0 -3 1608 -2 1607 277 -2 278 -3 0 -1605z m2985 300 l5
-1305 30 -55 c54 -98 174 -145 313 -122 94 16 149 53 187 127 l30 59 3 1303 2
1303 263 -2 262 -3 3 -1230 c2 -835 -1 -1265 -8 -1338 -37 -365 -225 -584
-572 -664 -104 -24 -405 -24 -503 0 -335 83 -515 283 -565 632 -6 44 -10 548
-10 1338 l0 1267 278 -2 277 -3 5 -1305z m-3268 -2200 c105 -49 166 -158 176
-312 l5 -88 -107 0 -106 0 0 48 c0 106 -38 162 -110 162 -77 0 -116 -65 -107
-177 8 -100 42 -157 183 -304 197 -205 234 -276 242 -461 4 -100 1 -127 -18
-189 -18 -61 -30 -81 -78 -129 -49 -48 -67 -59 -124 -75 -66 -17 -68 -19 -68
-50 0 -31 2 -33 48 -39 26 -4 54 -12 63 -19 64 -49 45 -160 -32 -191 -54 -22
-205 -22 -259 0 -45 18 -70 55 -70 104 l0 31 73 -3 c66 -3 72 -5 75 -26 5 -30
34 -45 66 -32 21 8 26 16 26 44 0 39 -20 56 -64 56 -23 0 -25 4 -28 56 l-3 55
-54 19 c-65 22 -96 44 -138 99 -45 58 -64 128 -70 254 l-6 107 107 0 106 0 0
-72 c0 -141 37 -194 128 -185 77 8 108 63 99 174 -7 97 -43 157 -183 303 -136
143 -174 194 -212 283 -25 57 -27 73 -26 202 0 109 4 150 17 185 38 98 104
161 195 187 69 19 195 11 254 -17z m4150 0 c105 -49 165 -157 175 -312 l6 -88
-107 0 -106 0 0 48 c0 106 -38 162 -110 162 -77 0 -116 -65 -107 -177 7 -97
43 -158 171 -292 134 -140 164 -178 204 -256 43 -87 56 -156 49 -276 -6 -123
-26 -183 -81 -246 -42 -48 -89 -76 -160 -94 -43 -11 -46 -14 -46 -44 0 -31 2
-33 48 -39 77 -10 112 -56 98 -129 -13 -70 -69 -97 -196 -97 -141 0 -200 35
-200 120 l0 31 73 -3 c66 -3 72 -5 75 -26 5 -30 34 -45 66 -32 21 8 26 16 26
44 0 39 -20 56 -64 56 -25 0 -26 3 -26 55 0 36 -4 57 -12 59 -75 22 -119 45
-159 85 -66 66 -91 136 -97 279 l-5 112 107 0 106 0 0 -72 c0 -40 5 -90 11
-111 28 -101 180 -101 208 0 24 85 5 179 -52 263 -17 25 -79 95 -139 157 -183
190 -228 283 -228 467 0 56 7 125 15 155 29 112 101 189 202 217 70 20 196 12
255 -16z m-5981 -6 c142 -40 199 -145 199 -367 0 -160 -39 -269 -111 -315
l-28 -18 47 -34 c70 -53 101 -120 114 -254 13 -134 -1 -281 -33 -355 -29 -68
-104 -136 -172 -156 -38 -11 -103 -15 -264 -15 l-213 0 0 765 0 765 202 0
c156 0 215 -4 259 -16z m1107 -91 l-3 -108 -193 -3 -192 -2 2 -213 3 -212 153
-3 153 -3 -3 -107 -3 -107 -152 -3 -153 -3 0 -219 0 -220 193 -2 192 -3 3
-107 3 -108 -306 0 -305 0 0 765 0 765 305 0 306 0 -3 -107z m1380 20 l-3 -88
-95 0 -95 0 -3 88 -3 87 101 0 101 0 -3 -87z m544 -240 l3 -328 141 325 140
325 113 3 c89 2 112 0 108 -10 -3 -7 -71 -159 -153 -338 -81 -179 -147 -329
-147 -335 0 -7 259 -724 300 -831 4 -12 -14 -14 -110 -14 l-115 0 -97 278
c-54 152 -103 288 -108 302 -8 24 -10 22 -42 -40 l-34 -65 -1 -237 0 -238
-110 0 -110 0 0 765 0 765 110 0 110 0 2 -327z m1378 217 l0 -110 -115 0 -115
0 0 -655 0 -655 -115 0 -115 0 0 655 0 655 -115 0 -115 0 0 110 0 110 345 0
345 0 0 -110z m761 -625 c59 -401 110 -745 114 -762 l6 -33 -114 0 -115 0 -17
135 -18 135 -137 0 -137 0 -19 -135 -18 -135 -103 0 -102 0 4 28 c6 29 108
725 175 1192 23 157 43 291 46 298 3 10 41 12 166 10 l162 -3 107 -730z
m-2671 -150 l0 -645 -110 0 -110 0 0 645 0 645 110 0 110 0 0 -645z m-2598
-1152 c759 -913 1767 -1624 3001 -2117 l217 -87 218 87 c1233 493 2241 1204
3000 2117 l106 127 249 0 c152 0 247 -4 245 -9 -9 -27 -274 -327 -423 -480
-388 -397 -733 -683 -1190 -986 -273 -181 -480 -301 -805 -463 -403 -203 -826
-376 -1242 -511 l-158 -51 -157 51 c-417 135 -840 308 -1243 511 -325 162
-532 282 -805 463 -457 303 -802 589 -1190 986 -149 153 -414 453 -423 480 -2
5 93 9 245 9 l249 0 106 -127z m3281 -15 c25 -79 69 -218 98 -310 l53 -168
340 -2 340 -3 -272 -204 c-150 -112 -272 -208 -272 -214 0 -7 45 -155 100
-330 56 -176 99 -321 97 -323 -2 -2 -124 86 -271 197 -152 114 -274 198 -281
195 -8 -3 -132 -93 -275 -201 -144 -108 -264 -195 -266 -193 -2 3 41 147 96
322 55 175 100 324 100 332 0 8 -122 105 -270 216 l-270 203 339 3 339 2 40
128 c156 494 155 492 173 492 14 0 27 -31 62 -142z m-1424 -379 l57 -184 194
-5 193 -5 -155 -117 -156 -117 59 -187 c33 -102 58 -188 56 -190 -2 -2 -73 48
-157 111 -84 63 -155 115 -157 115 -2 0 -72 -52 -156 -115 -83 -63 -153 -110
-155 -105 -2 5 22 88 53 185 31 97 55 180 53 185 -2 5 -72 61 -157 124 l-154
116 196 0 196 0 46 148 c25 81 51 163 57 182 13 42 18 53 25 47 2 -3 30 -87
62 -188z m2831 -9 l56 -175 194 -5 193 -5 -156 -117 -156 -117 14 -43 c48
-142 104 -332 101 -336 -3 -2 -24 11 -48 30 -24 19 -93 72 -155 117 l-112 82
-154 -116 c-84 -63 -156 -115 -159 -115 -3 0 21 84 53 187 33 103 58 191 57
195 -2 4 -72 59 -157 122 l-154 116 196 0 195 0 11 33 c5 17 31 100 57 182 26
83 49 154 52 160 7 11 3 20 72 -195z"/>
<path d="M10039 12541 c-76 -67 -128 -194 -129 -313 0 -58 11 -60 58 -10 39
40 182 254 182 271 0 13 -52 90 -61 91 -3 0 -26 -18 -50 -39z"/>
<path d="M4780 7474 l0 -586 163 4 c155 3 165 4 220 32 70 34 109 83 138 175
18 57 22 99 26 306 8 370 -12 498 -91 580 -59 62 -112 75 -303 75 l-153 0 0
-586z"/>
<path d="M7762 7558 l3 -503 90 -3 c268 -9 380 48 433 218 25 81 25 519 0 601
-24 77 -67 132 -125 160 -44 22 -62 24 -226 27 l-177 4 2 -504z"/>
<path d="M7760 5924 l0 -585 213 3 c194 3 215 5 252 25 118 63 145 157 145
513 0 330 -20 447 -91 533 -62 76 -142 97 -364 97 l-155 0 0 -586z"/>
<path d="M4450 4085 l0 -205 55 0 c73 0 119 20 142 62 26 47 26 248 0 295 -24
44 -44 53 -126 53 l-71 0 0 -205z"/>
<path d="M4450 3430 l0 -230 86 0 c47 0 94 5 106 11 36 20 48 69 48 208 0 207
-23 241 -165 241 l-75 0 0 -230z"/>
<path d="M9526 3858 c-26 -200 -50 -371 -53 -380 -4 -16 6 -18 101 -18 102 0
106 1 106 21 0 37 -91 703 -98 722 -4 11 -28 -137 -56 -345z"/>
</g>
</svg>
